<svg width="200" height="200" viewBox="0 0 200 200" fill="none" xmlns="http://www.w3.org/2000/svg">
  <!-- Top left toe bean -->
  <ellipse cx="65" cy="55" rx="20" ry="28" fill="#5DBAAA" stroke="white" stroke-width="3" transform="rotate(-15 65 55)"/>
  
  <!-- Top middle-left toe bean -->
  <ellipse cx="95" cy="42" rx="22" ry="30" fill="#5DBAAA" stroke="white" stroke-width="3"/>
  
  <!-- Top middle-right toe bean -->
  <ellipse cx="128" cy="42" rx="22" ry="30" fill="#5DBAAA" stroke="white" stroke-width="3"/>
  
  <!-- Top right toe bean -->
  <ellipse cx="158" cy="55" rx="20" ry="28" fill="#5DBAAA" stroke="white" stroke-width="3" transform="rotate(15 158 55)"/>
  
  <!-- Main paw pad -->
  <path d="M 111.5 78 
           C 85 78, 62 95, 62 120
           C 62 138, 68 152, 75 160
           C 80 165, 88 168, 95 168
           C 100 168, 104 167, 108 165
           C 112 167, 116 168, 121 168
           C 128 168, 136 165, 141 160
           C 148 152, 154 138, 154 120
           C 154 95, 131 78, 111.5 78 Z" 
        fill="#5DBAAA" stroke="white" stroke-width="3"/>
</svg>
